HIERARCHY
ROOT joint_Root
{
	OFFSET 0.0 0.0 0.0
	CHANNELS 6 Xposition Yposition Zposition Zrotation Xrotation Yrotation 
	JOINT Hips
	{
		OFFSET 4.5925 91.4895 -427.239
		CHANNELS 6 Xposition Yposition Zposition Zrotation Xrotation Yrotation 
		JOINT Spine
		{
			OFFSET 15.7357 0.0 0.0
			CHANNELS 6 Xposition Yposition Zposition Zrotation Xrotation Yrotation 
			JOINT Chest
			{
				OFFSET 8.98455 -0.406207 0.0
				CHANNELS 6 Xposition Yposition Zposition Zrotation Xrotation Yrotation 
				JOINT Neck
				{
					OFFSET 16.3773 0.0 0.0
					CHANNELS 6 Xposition Yposition Zposition Zrotation Xrotation Yrotation 
					JOINT Head
					{
						OFFSET 6.45672 0.0 0.0
						CHANNELS 6 Xposition Yposition Zposition Zrotation Xrotation Yrotation 
						End Site
						{
							OFFSET 0.0 0.0 0.0
						}
					}
				}
				JOINT Shoulder_L
				{
					OFFSET 12.9942 -0.242716 4.98039
					CHANNELS 6 Xposition Yposition Zposition Zrotation Xrotation Yrotation 
					JOINT UpperArm_L
					{
						OFFSET 5.34809 0.0 0.0
						CHANNELS 6 Xposition Yposition Zposition Zrotation Xrotation Yrotation 
						JOINT LowerArm_L
						{
							OFFSET 24.3286 1.87007e-05 0.0
							CHANNELS 6 Xposition Yposition Zposition Zrotation Xrotation Yrotation 
							JOINT Hand_L
							{
								OFFSET 22.2916 0.0 0.0
								CHANNELS 6 Xposition Yposition Zposition Zrotation Xrotation Yrotation 
								End Site
								{
									OFFSET 0.0 0.0 0.0
								}
							}
						}
					}
				}
				JOINT Shoulder_R
				{
					OFFSET 12.9945 -0.242716 -4.98039
					CHANNELS 6 Xposition Yposition Zposition Zrotation Xrotation Yrotation 
					JOINT UpperArm_R
					{
						OFFSET -5.34813 0.0 0.0
						CHANNELS 6 Xposition Yposition Zposition Zrotation Xrotation Yrotation 
						JOINT LowerArm_R
						{
							OFFSET -24.3289 0.000322201 0.0
							CHANNELS 6 Xposition Yposition Zposition Zrotation Xrotation Yrotation 
							JOINT Hand_R
							{
								OFFSET -22.2915 -0.000108084 0.0
								CHANNELS 6 Xposition Yposition Zposition Zrotation Xrotation Yrotation 
								End Site
								{
									OFFSET 0.0 0.0 0.0
								}
							}
						}
					}
				}
			}
		}
		JOINT UpperLeg_L
		{
			OFFSET -2.19248 -6.46944 0.0
			CHANNELS 6 Xposition Yposition Zposition Zrotation Xrotation Yrotation 
			JOINT LowerLeg_L
			{
				OFFSET 39.0811 0.0 -1.23785e-05
				CHANNELS 6 Xposition Yposition Zposition Zrotation Xrotation Yrotation 
				JOINT Foot_L
				{
					OFFSET 40.9854 0.0 -1.26872e-05
					CHANNELS 6 Xposition Yposition Zposition Zrotation Xrotation Yrotation 
					JOINT Toes_L
					{
						OFFSET 11.7543 0.0 0.0
						CHANNELS 6 Xposition Yposition Zposition Zrotation Xrotation Yrotation 
						End Site
						{
							OFFSET 0.0 0.0 0.0
						}
					}
				}
			}
		}
		JOINT UpperLeg_R
		{
			OFFSET -2.19251 6.46944 0.0
			CHANNELS 6 Xposition Yposition Zposition Zrotation Xrotation Yrotation 
			JOINT LowerLeg_R
			{
				OFFSET -39.0811 -0.00228153 -0.0401928
				CHANNELS 6 Xposition Yposition Zposition Zrotation Xrotation Yrotation 
				JOINT Foot_R
				{
					OFFSET -40.9854 0.0 0.0
					CHANNELS 6 Xposition Yposition Zposition Zrotation Xrotation Yrotation 
					JOINT Toes_R
					{
						OFFSET -11.7543 0.0 0.0
						CHANNELS 6 Xposition Yposition Zposition Zrotation Xrotation Yrotation 
						End Site
						{
							OFFSET 0.0 0.0 0.0
						}
					}
				}
			}
		}
	}
}
MOTION
Frames:	6
Frame Time:	0.0333333
0.000000 0.000000 0.000000 0.000000 0.000000 -0.000000 -1.670550 90.878300 -2.922430 88.033600 -4.729450 12.730000 15.735700 0.000005 -0.000001 89.769200 76.586500 -89.077500 8.984550 -0.406207 -0.000000 19.061400 -0.037981 1.393510 16.377300 -0.000001 -0.000001 9.950800 -4.609600 0.352909 6.456720 -0.000001 -0.000000 -6.426110 -4.651630 2.749480 12.994200 -0.242716 4.980390 -90.954900 3.944160 -76.378200 5.348090 -0.000007 -0.000001 -75.516700 -23.847900 -67.817400 24.328600 0.000019 0.000005 40.082900 -6.223720 -97.340500 22.291600 -0.000001 0.000005 29.542400 4.964400 8.067190 12.994500 -0.242716 -4.980390 88.904200 11.110900 -84.331400 -5.348130 -0.000001 -0.000004 -55.095700 36.858400 -23.028100 -24.328900 0.000322 -0.000009 2.103390 5.505570 -20.956900 -22.291500 -0.000108 -0.000004 15.699800 5.406950 -3.164820 -2.192480 -6.469440 -0.000000 -171.527000 -14.626100 0.158581 39.081100 -0.000007 -0.000012 -0.140485 0.224062 32.087700 40.985400 -0.000006 -0.000013 0.338840 7.208510 -68.795100 11.754300 -0.000000 0.000003 -0.000178 -0.001675 -16.641000 -2.192510 6.469440 -0.000001 175.162000 22.235600 -178.088000 -39.081100 -0.002282 -0.040193 -0.174739 0.308641 29.978900 -40.985400 0.000008 0.000006 5.623460 18.403700 -69.059500 -11.754300 -0.000006 -0.000006 -0.002502 -0.034831 -17.989500
0.000000 0.000000 0.000000 0.000000 0.000000 -0.000000 -1.697190 90.878100 -2.893580 88.031800 -4.619470 12.741200 15.735700 0.000005 -0.000001 89.918400 76.578800 -89.198700 8.984550 -0.406207 -0.000000 19.076600 0.033237 1.437390 16.377300 -0.000001 -0.000001 10.077500 -4.631030 0.530994 6.456720 -0.000001 -0.000000 -6.307760 -4.654800 2.742650 12.994200 -0.242716 4.980390 -90.980500 4.046360 -76.367300 5.348090 -0.000007 -0.000001 -78.016500 -25.085000 -67.629900 24.328600 0.000019 0.000005 39.842600 -6.261290 -97.446600 22.291600 -0.000001 0.000005 29.786500 4.959060 8.177960 12.994500 -0.242716 -4.980390 88.892000 11.133600 -84.280300 -5.348130 -0.000001 -0.000004 -54.993600 36.850100 -23.087900 -24.328900 0.000322 -0.000009 2.108470 5.510550 -20.985800 -22.291500 -0.000108 -0.000004 15.710000 5.407720 -3.190130 -2.192480 -6.469440 -0.000000 -171.522000 -14.544700 0.171055 39.081100 -0.000007 -0.000012 -0.139784 0.223002 32.080900 40.985400 -0.000006 -0.000013 0.327796 7.241000 -68.798300 11.754300 -0.000000 0.000003 -0.000183 -0.001721 -16.642600 -2.192510 6.469440 -0.000001 175.177000 22.206000 -178.042000 -39.081100 -0.002282 -0.040193 -0.176033 0.311048 29.965800 -40.985400 0.000008 0.000006 5.598770 18.278100 -69.077200 -11.754300 -0.000006 -0.000006 -0.002581 -0.035771 -18.027700
0.000000 0.000000 0.000000 0.000000 0.000000 -0.000000 -1.719910 90.875900 -2.865450 88.064600 -4.491960 12.770800 15.735700 0.000005 -0.000001 90.027300 76.562600 -89.309500 8.984550 -0.406207 -0.000000 19.108600 0.083264 1.425430 16.377300 -0.000001 -0.000001 10.182500 -4.623520 0.721350 6.456720 -0.000001 -0.000000 -6.181220 -4.623730 2.792990 12.994200 -0.242716 4.980390 -91.009300 4.149960 -76.318400 5.348090 -0.000007 -0.000001 -80.081700 -26.101300 -67.394600 24.328600 0.000019 0.000005 39.788700 -6.396190 -97.618900 22.291600 -0.000001 0.000005 30.127200 4.944390 8.479480 12.994500 -0.242716 -4.980390 88.889300 11.154000 -84.276700 -5.348130 -0.000001 -0.000004 -54.889600 36.849400 -23.222000 -24.328900 0.000322 -0.000009 2.102850 5.481510 -21.035500 -22.291500 -0.000108 -0.000004 15.696700 5.407040 -3.167550 -2.192480 -6.469440 -0.000000 -171.568000 -14.401800 0.207941 39.081100 -0.000007 -0.000012 -0.139289 0.222371 32.062400 40.985400 -0.000006 -0.000013 0.309051 7.234930 -68.804500 11.754300 -0.000000 0.000003 -0.000182 -0.001714 -16.642400 -2.192510 6.469440 -0.000001 175.135000 22.213000 -177.984000 -39.081100 -0.002282 -0.040193 -0.177653 0.313641 29.983000 -40.985400 0.000008 0.000006 5.582080 18.170300 -69.116600 -11.754300 -0.000006 -0.000006 -0.002480 -0.034574 -17.979000
0.000000 0.000000 0.000000 0.000000 0.000000 -0.000000 -1.744520 90.870400 -2.834480 88.074800 -4.324780 12.811500 15.735700 0.000005 -0.000001 90.163800 76.541800 -89.445400 8.984550 -0.406207 -0.000000 19.149800 0.146400 1.416000 16.377300 -0.000001 -0.000001 10.267700 -4.624160 0.854269 6.456720 -0.000001 -0.000000 -6.052340 -4.673880 2.931810 12.994200 -0.242716 4.980390 -91.031000 4.236500 -76.308800 5.348090 -0.000007 -0.000001 -81.640300 -26.871400 -67.079600 24.328600 0.000019 0.000005 39.539300 -6.540660 -97.856600 22.291600 -0.000001 0.000005 30.677100 4.936510 8.639840 12.994500 -0.242716 -4.980390 88.887200 11.139500 -84.258500 -5.348130 -0.000001 -0.000004 -54.813900 36.863600 -23.400100 -24.328900 0.000322 -0.000009 2.094570 5.440440 -21.103800 -22.291500 -0.000108 -0.000004 15.662800 5.406580 -3.152450 -2.192480 -6.469440 -0.000000 -171.582000 -14.281400 0.225184 39.081100 -0.000007 -0.000012 -0.140451 0.224089 32.078200 40.985400 -0.000006 -0.000013 0.301687 7.259760 -68.812700 11.754300 -0.000000 0.000003 -0.000172 -0.001634 -16.639400 -2.192510 6.469440 -0.000001 175.097000 22.284000 -177.910000 -39.081100 -0.002282 -0.040193 -0.178994 0.315699 30.003900 -40.985400 0.000008 0.000006 5.574560 18.074900 -69.159000 -11.754300 -0.000006 -0.000006 -0.002498 -0.034781 -17.987500
0.000000 0.000000 0.000000 0.000000 0.000000 -0.000000 -1.777110 90.861100 -2.821320 88.077200 -4.107860 12.800800 15.735700 0.000005 -0.000001 90.318700 76.541200 -89.607800 8.984550 -0.406207 -0.000000 19.150200 0.216903 1.388800 16.377300 -0.000001 -0.000001 10.325300 -4.635450 1.023840 6.456720 -0.000001 -0.000000 -5.954750 -4.719610 3.020630 12.994200 -0.242716 4.980390 -91.043700 4.279230 -76.280000 5.348090 -0.000007 -0.000001 -82.670400 -27.258800 -66.698800 24.328600 0.000019 0.000005 39.182200 -6.655670 -98.093300 22.291600 -0.000001 0.000005 31.160200 4.927740 8.819810 12.994500 -0.242716 -4.980390 88.880600 11.159500 -84.235100 -5.348130 -0.000001 -0.000004 -54.701000 36.918800 -23.590400 -24.328900 0.000322 -0.000009 2.086440 5.386450 -21.220500 -22.291500 -0.000108 -0.000004 15.715800 5.405870 -3.129220 -2.192480 -6.469440 -0.000000 -171.604000 -14.118800 0.153480 39.081100 -0.000007 -0.000012 -0.141408 0.225228 32.122600 40.985400 -0.000006 -0.000013 0.300610 7.333420 -68.820300 11.754300 -0.000000 0.000003 -0.000182 -0.001712 -16.642300 -2.192510 6.469440 -0.000001 175.101000 22.339600 -177.905000 -39.081100 -0.002282 -0.040193 -0.179803 0.316596 30.043400 -40.985400 0.000008 0.000006 5.555130 17.921400 -69.204900 -11.754300 -0.000006 -0.000006 -0.002441 -0.034106 -17.960000
0.000000 0.000000 0.000000 0.000000 0.000000 -0.000000 -1.806180 90.859200 -2.801210 88.094100 -3.835750 12.784600 15.735700 0.000005 -0.000001 90.484700 76.537500 -89.796500 8.984550 -0.406207 -0.000000 19.156700 0.291177 1.330900 16.377300 -0.000001 -0.000001 10.319200 -4.668950 1.159390 6.456720 -0.000001 -0.000000 -5.867860 -4.794480 3.139000 12.994200 -0.242716 4.980390 -91.060900 4.332850 -76.227800 5.348090 -0.000007 -0.000001 -82.871100 -27.143600 -66.362000 24.328600 0.000019 0.000005 38.704700 -6.632890 -98.202800 22.291600 -0.000001 0.000005 31.850600 4.916470 9.047660 12.994500 -0.242716 -4.980390 88.876400 11.192000 -84.230100 -5.348130 -0.000001 -0.000004 -54.547100 37.030400 -23.794300 -24.328900 0.000322 -0.000009 2.044670 5.235450 -21.378200 -22.291500 -0.000108 -0.000004 15.931100 5.406630 -3.154390 -2.192480 -6.469440 -0.000000 -171.652000 -13.907600 0.106098 39.081100 -0.000007 -0.000012 -0.146140 0.232825 32.116000 40.985400 -0.000006 -0.000013 0.295400 7.404090 -68.814400 11.754300 -0.000000 0.000003 -0.000169 -0.001610 -16.638600 -2.192510 6.469440 -0.000001 175.056000 22.500000 -177.872000 -39.081100 -0.002282 -0.040193 -0.181027 0.318642 30.048900 -40.985400 0.000008 0.000006 5.543900 17.825700 -69.244200 -11.754300 -0.000006 -0.000006 -0.002620 -0.036226 -18.046200
